<?xml version="1.0" encoding="UTF-8"?>
<svg id="Livello_1" data-name="Livello 1" xmlns="http://www.w3.org/2000/svg" xmlns:xlink="http://www.w3.org/1999/xlink" viewBox="0 0 1059.18 228.85">
  <defs>
    <style>
      .cls-1 {
        fill: none;
      }

      .cls-2 {
        fill: #f8e82b;
      }

      .cls-3 {
        fill: #fff;
      }

      .cls-4 {
        fill: #676c70;
        font-family: ArialMT, Arial;
        font-size: 33.19px;
      }

      .cls-5 {
        fill: #2d489d;
      }

      .cls-6 {
        clip-path: url(#clippath);
      }

      .cls-7 {
        fill: #034ea2;
      }
    </style>
    <clipPath id="clippath">
      <rect class="cls-1" width="661.88" height="228.85"/>
    </clipPath>
  </defs>
  <rect class="cls-3" x="41.96" y="44.89" width="191.97" height="130.36"/>
  <rect class="cls-7" x="45.65" y="48.47" width="184.58" height="123.06"/>
  <polygon class="cls-2" points="126.01 75.28 129.9 72.44 133.8 75.28 132.31 70.68 136.27 67.84 131.39 67.84 129.9 63.19 128.41 67.85 123.53 67.84 127.49 70.68 126.01 75.28"/>
  <polygon class="cls-2" points="105.85 80.7 109.74 77.85 113.64 80.7 112.16 76.1 116.11 73.26 111.23 73.26 109.74 68.6 108.25 73.26 103.38 73.26 107.33 76.1 105.85 80.7"/>
  <polygon class="cls-2" points="95 83.38 93.5 88.04 88.63 88.04 92.58 90.88 91.1 95.48 95 92.64 98.89 95.48 97.41 90.88 101.36 88.04 96.49 88.04 95 83.38"/>
  <polygon class="cls-2" points="89.59 112.77 93.48 115.61 92 111.01 95.95 108.17 91.08 108.17 89.59 103.51 88.09 108.18 83.22 108.17 87.17 111.01 85.69 115.61 89.59 112.77"/>
  <polygon class="cls-2" points="96.49 128.36 95 123.7 93.5 128.37 88.63 128.36 92.58 131.2 91.1 135.8 95 132.95 98.89 135.8 97.41 131.2 101.36 128.36 96.49 128.36"/>
  <polygon class="cls-2" points="111.27 143.14 109.77 138.48 108.28 143.14 103.41 143.14 107.36 145.98 105.88 150.58 109.78 147.73 113.67 150.58 112.19 145.98 116.14 143.14 111.27 143.14"/>
  <polygon class="cls-2" points="131.4 148.49 129.9 143.83 128.42 148.5 123.54 148.49 127.49 151.33 126.01 155.93 129.91 153.09 133.8 155.93 132.32 151.33 136.27 148.49 131.4 148.49"/>
  <polygon class="cls-2" points="151.53 143.14 150.04 138.48 148.54 143.14 143.67 143.14 147.62 145.98 146.14 150.58 150.04 147.73 153.93 150.58 152.45 145.98 156.4 143.14 151.53 143.14"/>
  <polygon class="cls-2" points="166.31 128.36 164.81 123.7 163.32 128.37 158.45 128.36 162.4 131.2 160.92 135.8 164.81 132.95 168.71 135.8 167.22 131.2 171.18 128.36 166.31 128.36"/>
  <polygon class="cls-2" points="176.53 108.11 171.66 108.11 170.16 103.46 168.67 108.12 163.8 108.11 167.75 110.95 166.27 115.55 170.16 112.71 174.06 115.55 172.58 110.95 176.53 108.11"/>
  <polygon class="cls-2" points="160.92 95.42 164.81 92.57 168.71 95.42 167.22 90.82 171.18 87.98 166.31 87.98 164.81 83.33 163.32 87.99 158.45 87.98 162.4 90.82 160.92 95.42"/>
  <polygon class="cls-2" points="150.09 68.6 148.6 73.27 143.73 73.26 147.68 76.11 146.2 80.7 150.1 77.85 153.99 80.7 152.51 76.11 156.47 73.26 151.58 73.26 150.09 68.6"/>
  <polygon class="cls-7" points="253.08 75.95 253.08 48.46 271.93 48.46 271.93 53.11 258.63 53.11 258.63 59.62 270.11 59.62 270.11 64.27 258.63 64.27 258.63 75.95 253.08 75.95"/>
  <path class="cls-7" d="M276.46,48.46h5.27v4.88h-5.27v-4.88ZM276.46,56.04h5.27v19.91h-5.27v-19.91Z"/>
  <g class="cls-6">
    <path class="cls-7" d="M305.25,75.95h-5.27v-10.16c0-2.15-.11-3.54-.34-4.17-.23-.63-.59-1.12-1.1-1.47-.51-.35-1.12-.52-1.83-.52-.91,0-1.73.25-2.46.75-.72.5-1.22,1.16-1.49,1.99-.27.83-.4,2.35-.4,4.57v9.02h-5.27v-19.91h4.89v2.92c1.74-2.25,3.93-3.38,6.56-3.38,1.16,0,2.22.21,3.19.63s1.69.95,2.18,1.6c.49.65.84,1.39,1.03,2.22.19.82.29,2.01.29,3.54v12.37Z"/>
    <path class="cls-7" d="M314.53,62.11l-4.78-.86c.53-1.93,1.46-3.35,2.77-4.27,1.31-.92,3.26-1.39,5.85-1.39,2.35,0,4.1.28,5.25.84s1.96,1.26,2.43,2.12c.47.86.7,2.43.7,4.72l-.06,6.15c0,1.75.09,3.04.25,3.87.17.83.48,1.72.95,2.67h-5.21c-.14-.35-.31-.87-.51-1.56-.09-.31-.15-.52-.19-.62-.9.88-1.86,1.53-2.89,1.97-1.02.44-2.12.65-3.28.65-2.05,0-3.66-.56-4.85-1.67-1.18-1.11-1.77-2.52-1.77-4.22,0-1.13.27-2.13.8-3.01.54-.88,1.29-1.56,2.26-2.02.97-.47,2.36-.88,4.19-1.23,2.46-.46,4.17-.89,5.12-1.29v-.52c0-1.01-.25-1.73-.75-2.16-.5-.43-1.44-.65-2.83-.65-.94,0-1.67.18-2.19.55s-.95,1.02-1.27,1.94M321.58,66.39c-.67.23-1.74.49-3.21.81-1.46.31-2.42.62-2.87.92-.69.49-1.03,1.11-1.03,1.86s.27,1.37.83,1.91c.55.54,1.25.81,2.1.81.95,0,1.86-.31,2.72-.94.64-.47,1.06-1.06,1.26-1.74.14-.45.21-1.31.21-2.57v-1.05Z"/>
    <path class="cls-7" d="M350.06,75.95h-5.27v-10.16c0-2.15-.11-3.54-.34-4.17-.23-.63-.59-1.12-1.1-1.47-.51-.35-1.12-.52-1.83-.52-.91,0-1.73.25-2.46.75-.72.5-1.22,1.16-1.49,1.99-.27.83-.4,2.35-.4,4.57v9.02h-5.27v-19.91h4.89v2.92c1.74-2.25,3.93-3.38,6.56-3.38,1.16,0,2.22.21,3.19.63s1.69.95,2.18,1.6c.49.65.84,1.39,1.03,2.22.19.82.29,2.01.29,3.54v12.37Z"/>
    <path class="cls-7" d="M353.28,75.95v-4.11l7.46-8.57c1.22-1.4,2.13-2.39,2.72-2.98-.61.04-1.42.06-2.42.08l-7.03.04v-4.37h16.46v3.73l-7.61,8.78-2.68,2.91c1.46-.09,2.37-.13,2.72-.13h8.16v4.63h-17.77Z"/>
    <path class="cls-7" d="M374.6,48.46h5.27v4.88h-5.27v-4.88ZM374.6,56.04h5.27v19.91h-5.27v-19.91Z"/>
    <path class="cls-7" d="M389.21,62.11l-4.78-.86c.54-1.93,1.47-3.35,2.78-4.27,1.31-.92,3.26-1.39,5.85-1.39,2.35,0,4.1.28,5.25.84s1.96,1.26,2.43,2.12c.47.86.7,2.43.7,4.72l-.06,6.15c0,1.75.09,3.04.25,3.87.17.83.48,1.72.95,2.67h-5.21c-.14-.35-.31-.87-.51-1.56-.09-.31-.15-.52-.19-.62-.9.88-1.86,1.53-2.89,1.97-1.02.44-2.12.65-3.28.65-2.05,0-3.66-.56-4.85-1.67-1.18-1.11-1.77-2.52-1.77-4.22,0-1.13.27-2.13.8-3.01.54-.88,1.29-1.56,2.26-2.02.97-.47,2.36-.88,4.19-1.23,2.46-.46,4.17-.89,5.12-1.29v-.52c0-1.01-.25-1.73-.75-2.16-.5-.43-1.44-.65-2.83-.65-.94,0-1.67.18-2.19.55s-.95,1.02-1.27,1.94M396.26,66.39c-.67.23-1.74.49-3.21.81-1.46.31-2.42.62-2.87.92-.69.49-1.03,1.11-1.03,1.86s.27,1.37.83,1.91c.55.54,1.25.81,2.1.81.95,0,1.86-.31,2.72-.94.64-.47,1.06-1.06,1.26-1.74.14-.45.21-1.31.21-2.57v-1.05Z"/>
    <path class="cls-7" d="M415.76,56.04v4.2h-3.6v8.03c0,1.63.03,2.57.1,2.84.07.27.23.49.47.66.24.18.54.26.89.26.49,0,1.2-.17,2.12-.51l.45,4.09c-1.23.52-2.61.79-4.16.79-.95,0-1.81-.16-2.57-.48-.76-.32-1.32-.73-1.68-1.24-.36-.51-.6-1.19-.74-2.05-.11-.61-.17-1.85-.17-3.71v-8.68h-2.42v-4.2h2.42v-3.96l5.29-3.07v7.03h3.6Z"/>
    <path class="cls-7" d="M418.19,65.71c0-1.75.43-3.45,1.29-5.08.86-1.64,2.09-2.89,3.66-3.75,1.58-.86,3.35-1.29,5.3-1.29,3.01,0,5.48.98,7.41,2.93,1.93,1.96,2.89,4.43,2.89,7.42s-.97,5.51-2.92,7.49c-1.94,1.98-4.39,2.97-7.34,2.97-1.83,0-3.57-.41-5.22-1.24-1.66-.83-2.91-2.03-3.78-3.63-.86-1.59-1.29-3.53-1.29-5.82M423.59,65.99c0,1.97.47,3.49,1.41,4.54.93,1.05,2.09,1.57,3.47,1.57s2.53-.52,3.46-1.57c.93-1.05,1.4-2.57,1.4-4.58s-.47-3.45-1.4-4.5c-.93-1.05-2.09-1.57-3.46-1.57s-2.53.52-3.47,1.57c-.94,1.05-1.41,2.56-1.41,4.54"/>
    <path class="cls-7" d="M271.27,122.03h-4.89v-2.92c-.81,1.14-1.77,1.98-2.88,2.54-1.11.56-2.22.84-3.35.84-2.29,0-4.25-.92-5.88-2.77-1.63-1.84-2.45-4.42-2.45-7.72s.79-5.94,2.38-7.69c1.59-1.76,3.59-2.63,6.02-2.63,2.22,0,4.15.92,5.78,2.77v-9.9h5.27v27.49ZM257.21,111.64c0,2.13.29,3.66.88,4.61.85,1.38,2.04,2.06,3.56,2.06,1.21,0,2.24-.51,3.1-1.55.85-1.03,1.27-2.57,1.27-4.62,0-2.29-.41-3.93-1.24-4.94-.82-1.01-1.88-1.51-3.17-1.51s-2.29.5-3.14,1.49c-.84.99-1.26,2.48-1.26,4.45"/>
    <path class="cls-7" d="M280.4,108.19l-4.78-.86c.54-1.93,1.47-3.35,2.78-4.27,1.31-.92,3.26-1.39,5.85-1.39,2.35,0,4.1.28,5.25.84s1.96,1.26,2.43,2.12c.47.86.7,2.43.7,4.72l-.06,6.15c0,1.75.09,3.04.25,3.87.17.83.48,1.72.95,2.67h-5.21c-.14-.35-.31-.87-.51-1.56-.09-.31-.15-.52-.19-.62-.9.88-1.86,1.53-2.89,1.97-1.02.44-2.12.65-3.28.65-2.05,0-3.66-.56-4.85-1.67-1.18-1.11-1.77-2.52-1.77-4.22,0-1.13.27-2.13.8-3.01.54-.88,1.29-1.56,2.26-2.02.97-.47,2.36-.88,4.19-1.23,2.46-.46,4.17-.89,5.12-1.29v-.52c0-1.01-.25-1.73-.75-2.16-.5-.43-1.44-.65-2.83-.65-.94,0-1.67.18-2.19.55s-.95,1.02-1.27,1.94M287.45,112.47c-.67.23-1.74.49-3.21.81-1.46.31-2.42.62-2.87.92-.69.49-1.03,1.11-1.03,1.86s.27,1.37.83,1.91c.55.54,1.25.81,2.1.81.95,0,1.86-.31,2.72-.94.64-.47,1.06-1.06,1.26-1.74.14-.45.21-1.31.21-2.57v-1.05Z"/>
    <rect class="cls-7" x="297.82" y="94.54" width="5.27" height="27.49"/>
    <rect class="cls-7" x="308.49" y="94.54" width="5.27" height="27.49"/>
    <polygon class="cls-7" points="319.12 104.31 318.13 99.19 318.13 94.54 323.86 94.54 323.86 99.19 323 104.31 319.12 104.31"/>
    <path class="cls-7" d="M328.29,94.54h5.55v14.89c0,2.36.07,3.89.21,4.59.24,1.13.8,2.03,1.7,2.71.89.68,2.12,1.02,3.66,1.02s2.76-.32,3.56-.97c.8-.64,1.28-1.43,1.44-2.37.17-.94.24-2.49.24-4.67v-15.21h5.55v14.44c0,3.3-.15,5.63-.45,7-.3,1.36-.85,2.51-1.66,3.45-.81.94-1.88,1.68-3.24,2.24s-3.11.84-5.29.84c-2.63,0-4.62-.31-5.97-.91-1.36-.61-2.43-1.4-3.22-2.36-.79-.97-1.31-1.98-1.56-3.04-.36-1.58-.54-3.9-.54-6.98v-14.66Z"/>
    <path class="cls-7" d="M374.13,122.03h-5.27v-10.16c0-2.15-.11-3.54-.34-4.17-.23-.63-.59-1.12-1.1-1.47-.51-.35-1.12-.52-1.83-.52-.91,0-1.73.25-2.46.75-.72.5-1.22,1.16-1.49,1.99-.27.83-.4,2.35-.4,4.57v9.02h-5.27v-19.91h4.89v2.92c1.74-2.25,3.93-3.38,6.56-3.38,1.16,0,2.22.21,3.19.63s1.69.95,2.18,1.6c.49.65.84,1.39,1.03,2.22.19.82.29,2.01.29,3.54v12.37Z"/>
    <path class="cls-7" d="M379.48,94.54h5.27v4.88h-5.27v-4.88ZM379.48,102.12h5.27v19.91h-5.27v-19.91Z"/>
    <path class="cls-7" d="M388.93,111.79c0-1.75.43-3.45,1.29-5.08.86-1.64,2.09-2.89,3.66-3.75,1.58-.86,3.35-1.29,5.3-1.29,3.01,0,5.48.98,7.41,2.93,1.93,1.96,2.89,4.43,2.89,7.42s-.97,5.51-2.92,7.49c-1.94,1.98-4.39,2.97-7.34,2.97-1.83,0-3.57-.41-5.22-1.24-1.66-.83-2.91-2.03-3.78-3.63-.86-1.59-1.29-3.53-1.29-5.82M394.33,112.07c0,1.97.47,3.49,1.41,4.54.93,1.05,2.09,1.57,3.47,1.57s2.53-.52,3.46-1.57c.93-1.05,1.4-2.58,1.4-4.58s-.47-3.45-1.4-4.5c-.93-1.05-2.09-1.57-3.46-1.57s-2.53.52-3.47,1.57c-.94,1.05-1.41,2.56-1.41,4.54"/>
    <path class="cls-7" d="M431.71,122.03h-5.27v-10.16c0-2.15-.11-3.54-.34-4.17-.23-.63-.59-1.12-1.1-1.47s-1.12-.52-1.83-.52c-.91,0-1.73.25-2.46.75-.72.5-1.22,1.16-1.49,1.99-.27.83-.4,2.35-.4,4.57v9.02h-5.27v-19.91h4.89v2.92c1.74-2.25,3.93-3.38,6.56-3.38,1.16,0,2.22.21,3.19.63.96.42,1.69.95,2.18,1.6.49.65.84,1.39,1.03,2.22.19.82.29,2.01.29,3.54v12.37Z"/>
    <path class="cls-7" d="M448.59,115.69l5.25.88c-.67,1.92-1.74,3.39-3.19,4.4-1.46,1.01-3.28,1.51-5.47,1.51-3.46,0-6.03-1.13-7.69-3.39-1.31-1.81-1.97-4.1-1.97-6.86,0-3.3.86-5.88,2.59-7.75,1.73-1.87,3.91-2.8,6.54-2.8,2.96,0,5.3.98,7.01,2.93,1.71,1.96,2.53,4.95,2.46,8.99h-13.2c.04,1.56.46,2.78,1.27,3.65.81.87,1.82,1.3,3.04,1.3.82,0,1.52-.23,2.08-.67.56-.45.99-1.18,1.28-2.18M448.89,110.37c-.04-1.53-.43-2.68-1.18-3.48-.75-.79-1.66-1.19-2.74-1.19-1.15,0-2.1.42-2.85,1.26-.75.84-1.12,1.98-1.11,3.41h7.88Z"/>
    <path class="cls-7" d="M480.62,115.69l5.25.88c-.67,1.92-1.74,3.39-3.19,4.4-1.46,1.01-3.28,1.51-5.47,1.51-3.46,0-6.03-1.13-7.69-3.39-1.31-1.81-1.97-4.1-1.97-6.86,0-3.3.86-5.88,2.59-7.75,1.73-1.87,3.91-2.8,6.54-2.8,2.96,0,5.3.98,7.01,2.93,1.71,1.96,2.53,4.95,2.46,8.99h-13.2c.04,1.56.46,2.78,1.27,3.65.81.87,1.82,1.3,3.04,1.3.82,0,1.52-.23,2.08-.67.56-.45.99-1.18,1.28-2.18M480.91,110.37c-.04-1.53-.43-2.68-1.18-3.48-.75-.79-1.66-1.19-2.74-1.19-1.15,0-2.1.42-2.85,1.26-.75.84-1.12,1.98-1.11,3.41h7.88Z"/>
    <path class="cls-7" d="M503.55,122.03v-2.98c-.72,1.06-1.68,1.9-2.86,2.51-1.18.61-2.43.92-3.74.92s-2.54-.3-3.6-.88c-1.06-.59-1.83-1.41-2.31-2.47-.47-1.06-.71-2.53-.71-4.41v-12.6h5.27v9.15c0,2.8.1,4.52.29,5.15.19.63.55,1.13,1.06,1.5.51.37,1.16.55,1.95.55.9,0,1.71-.24,2.42-.74.71-.49,1.2-1.11,1.46-1.84.26-.73.39-2.52.39-5.37v-8.4h5.27v19.91h-4.89Z"/>
    <path class="cls-7" d="M518.94,122.03h-5.27v-19.91h4.89v2.83c.84-1.34,1.59-2.22,2.26-2.64.67-.43,1.43-.64,2.28-.64,1.2,0,2.36.33,3.47.99l-1.63,4.59c-.89-.57-1.71-.86-2.48-.86s-1.36.2-1.88.61c-.51.41-.92,1.14-1.21,2.2-.3,1.06-.44,3.29-.44,6.67v6.15Z"/>
    <path class="cls-7" d="M527.62,111.79c0-1.75.43-3.45,1.29-5.08.86-1.64,2.09-2.89,3.66-3.75,1.58-.86,3.35-1.29,5.3-1.29,3.01,0,5.48.98,7.41,2.93,1.93,1.96,2.89,4.43,2.89,7.42s-.97,5.51-2.92,7.49c-1.94,1.98-4.39,2.97-7.34,2.97-1.83,0-3.57-.41-5.22-1.24-1.66-.83-2.91-2.03-3.78-3.63-.86-1.59-1.29-3.53-1.29-5.82M533.02,112.07c0,1.97.47,3.49,1.41,4.54.93,1.05,2.09,1.57,3.47,1.57s2.53-.52,3.46-1.57c.93-1.05,1.4-2.58,1.4-4.58s-.47-3.45-1.4-4.5c-.93-1.05-2.09-1.57-3.46-1.57s-2.53.52-3.47,1.57c-.94,1.05-1.41,2.56-1.41,4.54"/>
    <path class="cls-7" d="M552.15,102.12h4.91v2.92c.64-1,1.5-1.81,2.58-2.44,1.09-.62,2.29-.94,3.62-.94,2.31,0,4.27.91,5.89,2.72,1.61,1.81,2.42,4.34,2.42,7.57s-.81,5.91-2.43,7.75c-1.63,1.84-3.59,2.77-5.91,2.77-1.1,0-2.09-.22-2.99-.65-.89-.44-1.83-1.19-2.82-2.25v10.03h-5.27v-27.49ZM557.36,111.74c0,2.24.44,3.89,1.33,4.96.89,1.07,1.97,1.61,3.24,1.61s2.24-.49,3.06-1.47c.81-.98,1.22-2.59,1.22-4.83,0-2.09-.42-3.64-1.26-4.65-.84-1.01-1.88-1.52-3.11-1.52s-2.36.5-3.21,1.49c-.85.99-1.27,2.46-1.27,4.41"/>
    <path class="cls-7" d="M587.28,115.69l5.25.88c-.67,1.92-1.74,3.39-3.19,4.4-1.46,1.01-3.28,1.51-5.47,1.51-3.46,0-6.03-1.13-7.69-3.39-1.31-1.81-1.97-4.1-1.97-6.86,0-3.3.86-5.88,2.59-7.75,1.73-1.87,3.91-2.8,6.54-2.8,2.96,0,5.3.98,7.01,2.93,1.71,1.96,2.53,4.95,2.46,8.99h-13.2c.04,1.56.46,2.78,1.27,3.65.81.87,1.82,1.3,3.04,1.3.82,0,1.52-.23,2.08-.67.56-.45.99-1.18,1.28-2.18M587.58,110.37c-.04-1.53-.43-2.68-1.18-3.48-.75-.79-1.66-1.19-2.74-1.19-1.15,0-2.1.42-2.85,1.26-.75.84-1.12,1.98-1.11,3.41h7.88Z"/>
    <path class="cls-7" d="M601.05,108.19l-4.78-.86c.54-1.93,1.47-3.35,2.78-4.27,1.31-.92,3.26-1.39,5.85-1.39,2.35,0,4.1.28,5.25.84s1.96,1.26,2.43,2.12c.47.86.7,2.43.7,4.72l-.06,6.15c0,1.75.09,3.04.25,3.87.17.83.48,1.72.95,2.67h-5.21c-.14-.35-.31-.87-.51-1.56-.09-.31-.15-.52-.19-.62-.9.88-1.86,1.53-2.89,1.97-1.02.44-2.12.65-3.28.65-2.05,0-3.66-.56-4.85-1.67-1.18-1.11-1.77-2.52-1.77-4.22,0-1.13.27-2.13.8-3.01.54-.88,1.29-1.56,2.26-2.02.97-.47,2.36-.88,4.19-1.23,2.46-.46,4.17-.89,5.12-1.29v-.52c0-1.01-.25-1.73-.75-2.16-.5-.43-1.44-.65-2.83-.65-.94,0-1.67.18-2.19.55-.52.37-.95,1.02-1.27,1.94M608.1,112.47c-.67.23-1.74.49-3.21.81-1.46.31-2.42.62-2.87.92-.69.49-1.03,1.11-1.03,1.86s.27,1.37.83,1.91c.55.54,1.25.81,2.1.81.95,0,1.86-.31,2.72-.94.64-.47,1.06-1.06,1.26-1.74.14-.45.21-1.31.21-2.57v-1.05Z"/>
  </g>
  <text class="cls-4" transform="translate(250.53 171.49)"><tspan x="0" y="0">NextGenerationEU</tspan></text>
  <g>
    <g>
      <path class="cls-5" d="M822.5,73.07c.18-.46.36-.91.54-1.35.18-.43.38-.87.61-1.28l11.38-20.72c.2-.4.43-.64.68-.72s.59-.11,1.02-.11h3.67v34.32h-4.33v-24.69c0-.34.01-.73.03-1.12s.04-.8.08-1.21l-11.53,21.1c-.18.37-.42.65-.73.84s-.66.28-1.03.28h-.69c-.82,0-1.42-.37-1.79-1.12l-11.76-21.19c.03.43.06.86.09,1.26.03.41.05.8.05,1.17v24.69h-4.33v-34.32h3.67c.43,0,.77.04,1.02.11.24.08.47.32.68.72l11.6,20.77c.37.78.75,1.65,1.1,2.57Z"/>
      <path class="cls-5" d="M854.15,83.21h-4.96v-34.32h4.96v34.32Z"/>
      <path class="cls-5" d="M866.5,49.03c.22.09.46.33.73.69l19.54,25.33c-.03-.43-.06-.86-.09-1.29s-.04-.83-.04-1.2v-23.68h4.33v34.32h-2.49c-.38,0-.7-.06-.97-.2-.27-.14-.52-.36-.78-.68l-19.57-25.33c.03.41.06.83.09,1.23.03.41.04.79.04,1.14v23.84h-4.33v-34.32h2.55c.45.01.77.05.98.15Z"/>
      <path class="cls-5" d="M904.76,83.21h-4.96v-34.32h4.96v34.32Z"/>
      <path class="cls-5" d="M931.26,54.41c-.14.26-.29.45-.47.56-.17.11-.38.18-.65.18s-.61-.13-.98-.4c-.37-.27-.83-.56-1.38-.88-.55-.33-1.21-.63-1.98-.88-.77-.27-1.69-.4-2.75-.4s-1.92.13-2.69.4-1.42.63-1.94,1.09c-.52.46-.91,1.01-1.17,1.63-.27.63-.4,1.32-.4,2.04,0,.95.23,1.71.7,2.32.47.6,1.09,1.12,1.85,1.57.77.43,1.63.82,2.62,1.14s1.98.65,3,1.01c1.02.34,2.02.74,3,1.19.98.43,1.85,1,2.62,1.67s1.38,1.51,1.85,2.49.7,2.18.7,3.6c0,1.52-.26,2.92-.78,4.24s-1.28,2.46-2.26,3.45-2.2,1.75-3.64,2.32c-1.43.56-3.07.84-4.9.84-1.1,0-2.16-.1-3.19-.32s-2.01-.52-2.91-.91c-.92-.4-1.78-.86-2.58-1.4s-1.53-1.16-2.16-1.85l1.43-2.35c.13-.19.29-.34.49-.47.2-.11.42-.18.65-.18.33,0,.72.18,1.16.52.43.34.98.74,1.62,1.16.65.42,1.42.8,2.34,1.16.91.34,2.01.52,3.3.52,1.07,0,2.03-.14,2.87-.43.84-.28,1.56-.69,2.15-1.23.59-.52,1.02-1.16,1.33-1.92s.46-1.58.46-2.49c0-1.02-.23-1.85-.7-2.5-.47-.65-1.09-1.19-1.85-1.61-.77-.43-1.63-.79-2.61-1.1s-1.98-.61-3-.95c-1.03-.33-2.03-.7-3-1.14-.97-.43-1.84-1-2.61-1.69s-1.38-1.56-1.85-2.59-.7-2.32-.7-3.86c0-1.21.24-2.39.72-3.54s1.17-2.16,2.08-3.04,2.03-1.58,3.36-2.12,2.86-.8,4.58-.8c1.93,0,3.69.31,5.3.91,1.6.6,3,1.48,4.2,2.63l-1.21,2.38Z"/>
      <path class="cls-5" d="M963.17,48.89v4.14h-10.98v30.18h-4.93v-30.18h-11v-4.14h26.91Z"/>
      <path class="cls-5" d="M989.62,48.89v4.02h-16.28v11.05h13.13v3.87h-13.13v11.37h16.31l-.03,4.02h-21.24v-34.32h21.24Z"/>
      <path class="cls-5" d="M1001.15,69.04v14.16h-4.93v-34.32h9.83c2.2,0,4.1.22,5.7.66s2.91,1.09,3.96,1.93c1.05.84,1.81,1.85,2.31,3.03.5,1.17.74,2.49.74,3.95,0,1.21-.19,2.35-.56,3.4s-.92,1.99-1.62,2.84c-.72.84-1.58,1.56-2.61,2.16-1.03.6-2.2,1.06-3.5,1.37.63.37,1.15.88,1.6,1.56l9.78,13.44h-4.41c-.89,0-1.55-.34-1.97-1.05l-8.61-12.03c-.27-.38-.56-.65-.88-.83-.32-.17-.79-.26-1.43-.26h-3.41ZM1001.15,65.44h4.74c1.33,0,2.49-.15,3.49-.47,1.01-.32,1.84-.78,2.52-1.37.66-.59,1.18-1.29,1.52-2.09s.51-1.7.51-2.69c0-1.99-.65-3.5-1.97-4.52-1.3-1.02-3.28-1.53-5.91-1.53h-4.9v12.68s.01,0,.01,0Z"/>
      <path class="cls-5" d="M1058.05,66.03c0,2.57-.41,4.93-1.23,7.08-.82,2.16-1.97,4-3.46,5.54-1.48,1.55-3.27,2.75-5.35,3.61-2.09.86-4.41,1.29-6.93,1.29s-4.84-.43-6.92-1.29-3.87-2.07-5.36-3.61-2.66-3.4-3.47-5.54c-.82-2.16-1.23-4.51-1.23-7.08s.41-4.9,1.23-7.05c.82-2.16,1.98-4,3.47-5.56,1.49-1.55,3.28-2.76,5.36-3.63s4.39-1.3,6.92-1.3,4.85.43,6.93,1.3c2.09.87,3.87,2.08,5.35,3.63s2.63,3.4,3.46,5.56c.82,2.16,1.23,4.51,1.23,7.05ZM1053,66.03c0-2.06-.28-3.91-.84-5.54-.56-1.65-1.35-3.04-2.4-4.18s-2.3-2.02-3.77-2.62-3.1-.91-4.93-.91-3.46.31-4.94.91c-1.47.6-2.73,1.48-3.78,2.62-1.05,1.14-1.85,2.53-2.41,4.18-.56,1.65-.84,3.49-.84,5.54s.28,3.93.84,5.57c.56,1.65,1.37,3.03,2.41,4.16s2.3,2.01,3.78,2.61,3.12.91,4.94.91,3.46-.31,4.93-.91,2.72-1.47,3.77-2.61,1.84-2.52,2.4-4.16c.56-1.63.84-3.49.84-5.57Z"/>
      <path class="cls-5" d="M829.25,110.07c0,2.13-.34,4.09-1.02,5.84-.68,1.76-1.65,3.27-2.89,4.52s-2.73,2.22-4.47,2.9c-1.74.69-3.67,1.02-5.77,1.02h-10.7v-28.56h10.7c2.11,0,4.04.34,5.77,1.03,1.74.69,3.23,1.66,4.47,2.9,1.24,1.25,2.2,2.75,2.89,4.51.68,1.78,1.02,3.72,1.02,5.84ZM825.04,110.07c0-1.71-.23-3.24-.7-4.61-.46-1.35-1.14-2.5-2.01-3.45-.87-.93-1.92-1.65-3.14-2.15s-2.59-.74-4.11-.74h-6.59v21.9h6.59c1.51,0,2.89-.24,4.11-.74,1.23-.5,2.27-1.21,3.14-2.15s1.53-2.08,2.01-3.45c.47-1.35.7-2.9.7-4.62Z"/>
      <path class="cls-5" d="M852.32,95.8v3.35h-13.55v9.2h10.92v3.22h-10.92v9.45h13.58l-.03,3.35h-17.68v-28.56h17.68Z"/>
      <path class="cls-5" d="M861.72,120.88h12.2v3.46h-16.3v-28.56h4.1v25.1h0Z"/>
      <path class="cls-5" d="M882.2,120.88h12.2v3.46h-16.3v-28.56h4.1v25.1h0Z"/>
      <path class="cls-5" d="M922.02,124.36h-3.18c-.36,0-.65-.09-.88-.27-.23-.18-.4-.41-.52-.7l-2.57-6.71h-12.67l-2.57,6.71c-.08.26-.24.47-.49.68s-.54.29-.88.29h-3.18l11.38-28.56h4.16l11.39,28.56ZM903.33,113.73h10.41l-4.32-11.24c-.14-.36-.29-.77-.45-1.24s-.31-.98-.45-1.55c-.14.56-.29,1.07-.43,1.56-.14.47-.29.89-.43,1.25l-4.33,11.21Z"/>
      <path class="cls-5" d="M832.25,167.54c.31,0,.57.11.82.36l2.22,2.44c-1.58,1.85-3.52,3.3-5.8,4.33-2.29,1.03-5.02,1.55-8.21,1.55-2.81,0-5.36-.49-7.64-1.46-2.29-.97-4.23-2.34-5.85-4.09-1.61-1.75-2.86-3.84-3.73-6.27-.88-2.44-1.32-5.11-1.32-8.03s.46-5.61,1.38-8.03c.92-2.44,2.22-4.52,3.9-6.26s3.68-3.1,6.02-4.07,4.92-1.46,7.73-1.46,5.21.45,7.34,1.35c2.13.91,4,2.11,5.58,3.6l-1.84,2.59c-.13.18-.28.33-.45.45s-.41.18-.72.18c-.34,0-.74-.17-1.2-.51s-1.06-.73-1.81-1.15-1.69-.8-2.8-1.15c-1.12-.34-2.5-.51-4.14-.51-1.95,0-3.74.34-5.38,1.02-1.63.69-3.04,1.67-4.2,2.95-1.17,1.28-2.08,2.85-2.73,4.71s-.97,3.96-.97,6.31.33,4.51,1.01,6.37,1.61,3.44,2.78,4.73c1.19,1.28,2.58,2.26,4.18,2.94,1.61.68,3.33,1.01,5.17,1.01,1.14,0,2.16-.06,3.05-.2.91-.14,1.74-.33,2.5-.61.77-.27,1.48-.63,2.15-1.06s1.33-.95,2.01-1.55c.14-.13.29-.23.45-.31.15-.13.32-.17.5-.17Z"/>
      <path class="cls-5" d="M859.19,171.29c1.57,0,2.98-.27,4.2-.79,1.24-.54,2.29-1.28,3.14-2.24.86-.96,1.51-2.09,1.97-3.42.45-1.33.68-2.8.68-4.39v-23.51h5.57v23.51c0,2.26-.36,4.34-1.09,6.27-.72,1.93-1.75,3.6-3.08,5.01-1.34,1.4-2.96,2.5-4.89,3.3s-4.1,1.19-6.49,1.19-4.58-.4-6.5-1.19-3.55-1.89-4.89-3.3-2.38-3.08-3.1-5.01c-.72-1.93-1.09-4.02-1.09-6.27v-23.51h5.57v23.51c0,1.58.23,3.04.68,4.37s1.1,2.46,1.97,3.44c.86.97,1.9,1.71,3.15,2.25,1.23.52,2.63.79,4.2.79Z"/>
      <path class="cls-5" d="M892.46,171.05h16.59v4.71h-22.16v-38.83h5.57v34.11Z"/>
      <path class="cls-5" d="M938.98,136.94v4.67h-12.41v34.14h-5.57v-34.14h-12.44v-4.67h30.42Z"/>
      <path class="cls-5" d="M962.62,171.29c1.57,0,2.98-.27,4.2-.79,1.24-.54,2.29-1.28,3.14-2.24.86-.96,1.51-2.09,1.97-3.42.45-1.33.68-2.8.68-4.39v-23.51h5.57v23.51c0,2.26-.36,4.34-1.09,6.27-.72,1.93-1.75,3.6-3.08,5.01-1.34,1.4-2.96,2.5-4.89,3.3s-4.1,1.19-6.49,1.19-4.58-.4-6.5-1.19-3.55-1.89-4.89-3.3-2.38-3.08-3.1-5.01c-.72-1.93-1.09-4.02-1.09-6.27v-23.51h5.57v23.51c0,1.58.23,3.04.68,4.37s1.1,2.46,1.97,3.44c.86.97,1.9,1.71,3.15,2.25,1.23.52,2.63.79,4.2.79Z"/>
      <path class="cls-5" d="M995.9,159.75v16.02h-5.57v-38.83h11.12c2.49,0,4.64.26,6.44.75,1.8.51,3.3,1.23,4.48,2.18s2.06,2.08,2.61,3.42c.56,1.34.84,2.82.84,4.47,0,1.37-.22,2.66-.64,3.84s-1.03,2.26-1.84,3.21c-.8.95-1.79,1.76-2.95,2.45s-2.49,1.2-3.96,1.55c.7.41,1.3,1,1.81,1.76l11.06,15.21h-4.98c-1.01,0-1.75-.4-2.22-1.19l-9.74-13.61c-.31-.43-.64-.74-1-.93s-.91-.28-1.62-.28h-3.84v-.03h0ZM995.9,155.66h5.35c1.49,0,2.81-.18,3.95-.54s2.08-.87,2.84-1.55c.75-.66,1.33-1.46,1.72-2.36.38-.91.59-1.93.59-3.04,0-2.26-.74-3.96-2.22-5.11s-3.7-1.74-6.68-1.74h-5.54v14.33Z"/>
      <path class="cls-5" d="M1059.18,175.76h-4.33c-.49,0-.88-.13-1.19-.37s-.54-.56-.7-.96l-3.49-9.12h-17.23l-3.49,9.12c-.1.34-.33.65-.66.92s-.74.41-1.2.41h-4.33l15.48-38.83h5.66l15.48,38.83ZM1033.77,161.31h14.15l-5.87-15.29c-.2-.49-.4-1.05-.61-1.69-.2-.64-.41-1.34-.61-2.09-.2.75-.4,1.46-.6,2.11s-.4,1.21-.6,1.7l-5.85,15.26Z"/>
    </g>
    <polygon class="cls-3" points="791.72 175.79 664.8 175.79 664.8 144.89 665.88 144.89 665.42 49.45 791.13 49.45 791.72 120.02 791.72 175.79"/>
    <g>
      <path class="cls-5" d="M693.39,175.79v-19.89c0-.37.01-.78.04-1.23s.05-.89.1-1.35l-9.39,17.61c-.22.4-.5.72-.84.93-.34.22-.74.33-1.2.33h-.79c-.46,0-.86-.11-1.2-.33s-.63-.54-.84-.93l-9.51-17.68c.05.47.1.93.11,1.38.03.45.04.87.04,1.25v19.89h23.49Z"/>
      <path class="cls-5" d="M664.8,48.87v96.03h4.36c.26,0,.49.01.66.03.19.01.36.05.51.1.15.06.29.15.42.28s.26.29.37.51l9.28,17.25c.24.46.47.93.68,1.43l.61,1.49c.2-.51.41-1.02.63-1.52s.45-.98.69-1.44l9.2-17.2c.11-.22.23-.38.36-.51.11-.13.26-.22.41-.28s.32-.09.51-.1c.18-.01.41-.03.66-.03h4.36v30.89h6.31v-21.86h5.31v21.86h15.2c-.15-.04-.31-.09-.46-.13-.51-.15-1.01-.33-1.49-.54-1.84-.79-3.41-1.88-4.71-3.28s-2.3-3.08-3-5.03c-.7-1.94-1.05-4.07-1.05-6.39s.38-4.47,1.16-6.41,1.86-3.61,3.27-5.02,3.08-2.49,5.03-3.28c1.95-.78,4.11-1.17,6.48-1.17s4.32.37,6.04,1.11,3.21,1.71,4.43,2.94l-1.93,2.68c-.11.18-.26.32-.43.45s-.42.19-.74.19-.66-.13-1.01-.38c-.34-.26-.78-.54-1.32-.84-.52-.29-1.2-.57-2.01-.84-.8-.26-1.84-.38-3.08-.38-1.47,0-2.81.26-4.02.77-1.23.51-2.27,1.24-3.15,2.18-.88.95-1.57,2.09-2.06,3.45-.5,1.35-.74,2.87-.74,4.57s.24,3.3.74,4.66,1.16,2.5,2.01,3.44,1.84,1.65,2.99,2.13c1.15.5,2.38.74,3.69.74.79,0,1.49-.04,2.13-.13s1.23-.22,1.76-.41,1.05-.42,1.52-.72c.49-.29.96-.65,1.43-1.09.14-.13.29-.23.45-.31s.33-.11.51-.11c.32,0,.59.11.82.37l2.27,2.46c-1.26,1.56-2.81,2.76-4.65,3.59-.52.23-1.06.43-1.63.6-.15.05-.31.09-.47.13h34.32c.26-1.56.46-3.13.61-4.73.18-1.92.27-3.86.27-5.82,0-.98-.03-1.97-.06-2.94.28-.23.64-.51.91-.66.15-.09.78-.45,1.7-.96.72-.4,1.61-.89,2.61-1.43,1.06-.59,2.12-1.2,2.38-1.38,2.03-1.37,3.45-3.38,4.24-5.98.24-.8.42-1.62.42-1.99,0-.41-.14-1.06-.27-1.24-.11-.17-.34-.29-.59-.34l-.2-.03-.1.36c-.06.19-.18.61-.26.93-.47,1.94-1.42,3.1-3.31,4-1.2.59-2.52.92-3.74.97-.32.01-.61,0-.91-.01-1.6-.13-2.67-.78-3.3-1.98-.65-1.29-.98-3.87-.69-5.71.11-.74.19-1,.4-1.4.32-.6,1-1.12,1.66-1.25.57-.11,1.42,0,1.92.31.52.29,1.06,1.03,1.25,1.78.13.45.33.78.61,1.01.1.08.22.15.33.2.59.28,1.37.08,3.15-.79l1.01-.5h.38c.36,0,.4.01.8.2.72.33.77.34.79.27.01-.04.04-.17.04-.29,0-.2-.01-.24-.2-.4-.73-.65-.87-.8-1.01-1.11-.26-.52-.29-1.12-.08-1.55.09-.19.23-.32.51-.51.37-.24.5-.54.59-1.29.05-.45.03-.79-.13-1.21-.17-.5-.36-.8-1.06-1.66-.46-.57-.52-.73-.52-1.12,0-.52.22-1.02.64-1.52.6-.69.79-1.14.79-1.88,0-.56-.04-.69-.43-1.28-.13-.19-.27-.46-.31-.57-.18-.49-.05-1.19.26-1.51.2-.22,1.23-.63,2.34-.92,1.62-.43,2.18-1.11,2.29-2.66.04-.49-.03-.66-.26-.79-.11-.06-.13-.06-.33.05-.84.5-1.34.65-2.87.91-1.88.32-2.8.65-4.83,1.79-.65.37-1.12.64-1.51.83-.66.33-1,.45-1.35.5-.73.11-1.42-.22-1.98-.95-.29-.41-.6-.7-.86-.82-.26-.13-.66-.17-.8-.06-.17.1-.33.41-.43.8-.11.5-.08.63.32,1,.17.15.55.43.87.63.8.5,1.16.78,1.72,1.35.69.7.96.83,1.86.89.24.01.51.04.78.09.66.1,1.35.27,1.53.4.06.03.15.15.22.26.45.75-.11,2.11-1.43,3.42-.09.1-.2.2-.29.29-.61.56-1.3,1-2.04,1.3-.59.23-.82.29-1.57.32-1.2.05-1.43.13-2.36.72-.31.19-.7.43-.88.52-.37.2-1.12.47-1.53.52-.59.09-1.19-.1-1.74-.57-.17-.13-.31-.29-.46-.46-.7-.84-1.49-1.21-2.85-1.37-.31-.04-.74-.1-.95-.17-.2-.05-2.41-.78-4.89-1.61-8.03-2.71-7.79-2.62-10.5-3.77-2.62-1.11-3.45-1.63-4.23-2.67-.5-.68-.75-1.29-1.07-2.58-.38-1.62-.55-2.82-.51-4.07.03-1.19.15-1.76.43-2.02.36-.32.66-.31,1.46.05.52.24.56.26.92.27.33,0,.41-.03.69-.15.54-.26.75-.28,2.09-.31h1.23s-.1-.15-.1-.15c-.05-.08-.66-.82-1.37-1.63-.7-.83-1.43-1.71-1.61-1.94-.46-.59-.5-.61-1.1-.56-.65.05-1.26.04-1.88-.05-.86-.11-2.77-.5-2.87-.57-.13-.08-.23-.32-.23-.51,0-.2.01-.2.95-.52.69-.22.72-.24.96-.49.32-.32.43-.64.46-1.37.04-.93-.15-1.53-.86-2.78-.23-.41-.41-.73-.55-.98-.28-.55-.38-.88-.51-1.47-.14-.59-.13-.69.05-.8.34-.22,1.51-.27,2.22-.08.54.13,1.28.24,1.61.22.27-.01.33-.04.6-.22.18-.11.45-.32.6-.46.17-.15.54-.38.8-.55.68-.38,1.37-.87,2.31-1.62.42-.33,1.21-.95,1.76-1.37,1.66-1.28,2.64-2.06,3.33-2.63,2.04-1.72,3.77-3.58,5.06-5.42.45-.64.59-.95.87-1.75.24-.75.52-1.3.89-1.8.14-.2.7-.8,1.29-1.38s1.1-1.12,1.21-1.29c.26-.4.47-.87.59-1.32.18-.75.1-2.44-.15-2.95-.1-.19-.31-.36-.59-.46-.19-.05-.72-.06-.89,0-.22.09-.65.41-.93.73-.36.37-.59.78-.86,1.46-.11.31-.29.7-.4.89-.24.41-.75.97-1.29,1.39-.23.17-.7.57-1.06.89-.97.84-1.09.93-1.67,1.33-1.15.75-1.4,1.07-1.19,1.46.04.06.26.32.5.56.54.52.55.59.26.88-.51.5-.79.49-2.67-.11-1.11-.36-1.35-.34-2.09.17-.56.38-.74.49-1.65.95l-.8.41-.66.04c-.7.04-.92.09-.95.24,0,.04.06.23.17.43.2.4.22.46.11.59-.23.33-2.04.54-3.19.37-.23-.03-.66-.05-.97-.05-.68,0-1,.09-1.71.49-.89.5-1.61.73-2.16.7-.32-.01-.33-.03-.47-.19-.08-.09-.23-.38-.36-.65-.42-1-.78-1.35-1.33-1.35-.6,0-1.33.7-1.53,1.51-.1.37-.09.66.04.78.05.05.54.31,1.06.59.55.27,1.11.6,1.3.74.61.45,1.07.66,1.89.88.68.17,1.15.37,1.34.57l.17.17-.08.13c-.05.08-.15.2-.26.29l-.17.15-.78-.03c-.88-.03-1.24-.09-1.8-.36-.37-.18-.6-.32-.98-.65-.32-.28-.57-.38-.92-.38-.32,0-.51.05-1.02.29-.68.31-1.15.4-2.52.51-.97.08-1.14.17-1.24.6-.05.22.01.7.13.92.09.17.29.37.54.52.29.2,1.33,1.07,1.39,1.19.14.22.05.89-.18,1.48-.03.06-.05.11-.08.17-.17.36-.47.75-.82,1.06-.32.29-.42.46-.42.75s.09.52.26.72c.22.26.45.33.97.31.64-.04,1.12-.19,2.17-.68.66-.32,1.28-.51,1.81-.59.96-.13,1.74.13,2.44.77.29.26.52.55.72.87.42.66.65,1.47.7,2.4l.03.52-.15.18c-.08.1-.43.49-.79.87-1.02,1.09-1.86,2.04-2.18,2.45-.65.86-.74.91-1.65,1.02-.75.1-1.05.19-1.39.41-.23.15-.56.56-.68.82-.05.13-.05.14.18.38.13.14.32.33.41.42.24.22.31.37.28.69-.05.57-.49,1.17-1.03,1.47-.7.37-1.94.79-2.89.98-.8.17-1.44.22-2.3.19-1.3-.05-2.35-.29-3.6-.83-.43-.19-1.56-.78-1.98-1.05-.32-.2-.82-.69-.93-.89-.18-.34-.08-.69.27-.95.24-.18.46-.15,1.07.15.6.29,1.02.41,1.83.51,1.33.15,2.54.13,3.61-.06.78-.14.83-.2,1.09-.96.22-.66.7-1.65,1.24-2.55.51-.87.55-1,.55-1.8,0-.56-.01-.64-.09-.74-.18-.26-.33-.29-.98-.26-.7.04-1.29.14-2.58.49-1.15.31-1.69.41-2.66.47-1.7.11-3.44-.1-5.06-.63-1-.32-1.55-.66-2.22-1.34-.93-.95-1.7-2.09-2.07-3.13-.29-.79-.34-.92-.6-1.3-.41-.6-.97-1.07-1.65-1.38-.17-.08-.64-.27-1.06-.4-1.8-.6-2.44-.88-3.09-1.37-.7-.54-1.4-1.3-2.02-2.22-.14-.2-.22-.33-.29-.5-.06-.17-.11-.34-.22-.68-.11-.37-.31-.6-.56-.65-.19-.04-.24.01-.46.42-.15.29-.24.61-.26.95-.01.26.01.52.08.79.11.43.28.72.7,1.19.36.38.47.61.51,1.06.06.64-.89,2.34-1.92,3.37-.42.43-.63.52-1.05.52-.34,0-.63-.14-.98-.5-.43-.42-.69-.47-1.46-.23-.54.17-.78.13-1.14-.15-.51-.41-1.02-2.75-1.09-4.99v-.41c-.01-1.49.2-2.71.61-3.52.15-.31.27-.46.56-.75.32-.32.46-.41.88-.63.63-.32,1.23-.72,1.4-.93.38-.42.45-.79.24-1.39-.08-.22-.15-.54-.19-.68-.06-.36-.06-1.2,0-1.61.1-.59.24-.8.89-1.33.14-.1.26-.26.36-.46l.15-.31.03-1.29.03-1.3.11-.22c.18-.36.46-.59,1.12-.92.43-.22.92-.37,1.37-.42.23-.03.46-.08.52-.1.17-.1.33-.28.47-.55.26-.52.61-.95,1.16-1.38.6-.47,1.05-.61,1.61-.51.15.03.61.15,1,.28.65.2.75.23,1.14.23s.43,0,.6-.11c.36-.23.41-.45.74-2.68.09-.6.18-1.16.2-1.25.06-.26.4-.55.93-.82.27-.13.59-.26.78-.31.45-.09,1.05-.05,1.55.1.79.23,1.44.23,2.04.01.83-.31,1.16-.34,1.37-.19.26.19.37.51.59,1.79.23,1.4.41,1.93.78,2.45.7,1,.87,1.94.69,3.95-.18,1.81-.18,1.75-.04,1.99.28.47.77.84,1.94,1.51.45.24,1.43.93,2.15,1.48.88.68,1.9.86,2.85.51.29-.11.73-.41,1.42-.95,1.05-.82,1.15-.87,2.36-.91.49-.03,1.19-.06,1.56-.1.66-.06.7-.06,1.17-.29.65-.29.91-.46,1.35-.91.83-.82,1.53-1.19,3.15-1.63,1.34-.37,2.22-.97,2.89-1.98.55-.82.83-1.06,2.72-2.18.5-.29,1.05-.65,1.23-.78.7-.52,1.79-1.75,2.11-2.41.18-.32.18-.65.05-.93-.15-.32-.47-.55-1.3-.97-.42-.2-.77-.4-.77-.42,0-.09.18-.33.32-.43.26-.19.78-.36,1.81-.55.18-.05.29-.09.38-.18.13-.11.13-.13.13-.65,0-.28-.03-.7-.08-.93-.04-.23-.08-.64-.09-.92-.03-.45,0-.57.08-.87.13-.5.31-.79,1.09-1.89.73-1.01,1.01-1.48,1.14-1.93.15-.51.05-1.52-.18-1.88s-.68-.52-.93-.36c-.18.11-.24.26-.5,1.11-.27.86-.51,1.46-.83,2.09-.2.38-.31.54-.59.82-.56.56-.88.64-1.46.37-.65-.32-1.07-.32-2.45-.03-.47.1-.93.18-1.03.18-.55,0-1.02-.2-1.79-.78-1.1-.83-1.7-1.43-2.26-2.3-.32-.47-.55-.72-.83-.87-.24-.11-.61-.2-1.86-.41-1.19-.19-1.32-.2-2.09-.2-.91,0-1.26.05-2.44.33-.69.17-.96.28-1.84.78-1.66.93-2.38,1.2-3.3,1.2s-1.23-.57-1.23-2.07c0-.64,0-.7.11-1.06.26-.78.64-1.35,1.32-1.99.84-.82,1.98-1.42,3.44-1.85.69-.19.8-.22,1.98-.36.91-.1,1.94-.15,2.4-.08.1,0,.6.08,1.1.14.78.09,1.09.11,2.01.11,1.57,0,1.72-.05,2.07-.7.43-.78,1.21-1.71,1.79-2.12.8-.57,1.53-.8,3.13-.97,1.25-.13,2.11-.32,3.15-.7,1.42-.52,2.11-.51,3.79.06,1.66.57,2.26.63,3.64.41.38-.06.96-.17,1.29-.2.7-.11,1.39-.11,1.75-.03.61.17,1.06.5,1.85,1.38.64.73.64.74.56,1.47-.06.61-.15.91-.38,1.39-.26.55-.66.96-1.17,1.23-.37.18-.52.22-1.6.47-1.11.26-1.38.42-1.4.96-.04.54.15.87.64,1.12.37.19.69.26,1.47.32,1.69.1,1.89.18,2.49.8.42.45.51.59.5.89,0,.31-.09.59-.38,1.2-.23.46-.28.55-.78,1.07-.31.31-.56.61-.59.68-.04.15.01.31.17.52.22.32.51.98.61,1.35.08.33.11.66.22,1.65.08.82.29,1.07,1.34,1.57,1.34.64,2.68,1.43,4.84,2.81,1.46.95,1.8,1.24,1.98,1.7.13.36.13.68,0,.87-.29.45-.74.46-1.65.05-1.42-.64-1.72-.75-2.01-.8-.84-.14-1.37.33-1.37,1.23,0,.24.03.33.11.49.29.51.49,1.15.61,2.07.23,1.67.47,2.25,1.66,3.95,2.36,3.38,3.5,5.06,4.05,5.96.82,1.35,1.44,2.77,1.84,4.15.22.79.29,1.17.4,2.43.04.57.18,2.08.28,3.37.28,3.23.4,4.36.5,4.65.19.56.66,1.33,1.56,2.5.61.82,1.44,1.83,2.5,3.09,1.16,1.38,1.6,1.81,2.02,2.04.37.2.45.18.37-.09-.04-.1-.22-.36-.5-.66-.77-.86-.97-1.16-1.03-1.51-.11-.64.89-1.12,2.08-1.01h.09c4.39,1.62,8.66,3.51,12.78,5.63l.31.15V48.98h-127.01v-.11ZM772.53,142.57c.18-.36,1.19-1.26,1.8-1.63.01-.01.03-.01.04-.03.6-.36.93-.43,1.25-.29.23.09.4.26.54.55.28.55.23.72-.34,1.29-.61.59-1.06.92-1.58,1.09-.28.09-.57.14-.93.17-.37.03-.43.01-.55-.06-.26-.17-.37-.75-.22-1.07ZM687.74,138.15c-.15.18-.43.32-.61.32-.06,0-.18-.04-.27-.09-.75-.43-1.01-.5-1.8-.5-.66.01-1.28.09-2.9.45-.51.11-1,.19-1.03.18-.18-.05-.38-.26-.5-.5-.24-.54-.19-.7.29-.97.82-.43,1.17-.52,1.99-.49.93.05.97.03,1.99-.92l.56-.51h.22c.11.03.36.1.56.2.46.23,1.06.82,1.32,1.32.2.41.32.8.32,1.11,0,.2-.01.26-.14.4ZM683.2,134.61c.05-.19.42-.68.56-.74.11-.05.51-.1.61-.08.05.01.13.05.17.08.1.09.29.49.36.74.11.46-.1.74-.78.96-.32.1-.43.13-.51.09-.28-.1-.5-.69-.41-1.05ZM689.58,139.98c-.78.38-1.29.04-.87-.57.05-.06.18-.31.29-.51.49-.93,1.2-1.49,1.51-1.16.06.08.09.18.1.43.04.83-.33,1.47-1.03,1.81ZM701.77,131.32c-.29-.04-.55-.1-.66-.15-.32-.17-.49-.5-.46-.96,0-.05.05-.14.1-.19.09-.09.11-.09,1.02-.06.51.01,1.16.06,1.44.09,1.34.18,2.38.52,3.13,1.02.38.26.63.54.83.95.27.57.23.95-.14,1.25-.41.33-.68.4-1.14.26-.59-.18-1.2-.54-2.08-1.25-.77-.63-1.23-.83-2.04-.95ZM710.62,148.79c-.19.41-.43.75-.74,1.06-.31.29-.66.54-1.09.72-.42.18-.86.27-1.33.27s-.89-.09-1.3-.27-.77-.42-1.06-.72c-.31-.31-.54-.65-.72-1.06-.18-.4-.27-.83-.27-1.29s.09-.92.27-1.33.42-.77.72-1.07c.29-.29.65-.54,1.06-.72s.84-.27,1.3-.27.92.09,1.33.27.78.42,1.09.72c.31.31.55.66.74,1.07.18.42.28.86.28,1.33,0,.46-.1.88-.28,1.29ZM710.55,110.96c.08-.08.18-.17.22-.18.11-.06.42-.06.59,0,.27.1.5.42.56.78.05.23-.04.37-.28.5-.38.19-.65.15-.93-.15-.34-.4-.4-.73-.15-.95ZM708.53,116.5c.05-.06.13-.13.19-.15.17-.04.54-.04.79.03.59.11.93.87.59,1.24-.26.29-.84.38-1.12.19-.18-.11-.41-.57-.49-.93-.05-.23-.04-.27.04-.37ZM707.88,113.26c0,.26-.09.47-.2.54-.14.08-.79.22-.97.22-.22,0-.5-.19-.68-.47-.23-.37-.26-.66-.08-.83.06-.06.4-.17.63-.19,0,0,.26.05.55.11.45.09.54.11.64.23.1.13.11.19.11.4ZM704.42,109.15c.37-.41.96-.56,1.71-.46.84.13,1.28.45,1.28.95,0,.27-.11.49-.38.73-.51.47-1.47.68-2.2.45-.36-.11-.52-.26-.59-.52-.14-.49-.08-.86.18-1.14ZM697.43,120.5c1.48.05,1.65.05,1.75-.01.06-.04.13-.1.15-.17.03-.05.23-.77.45-1.6.59-2.2.61-2.27.92-2.48.19-.13.5-.13.84-.04.34.1.52.31.7.77.18.49.19.75.05.91-.06.06-.19.14-.27.18-.14.06-.57.45-.57.51,0,.01.13.09.29.19.87.45,1.6.47,3.64.17.87-.13,1.46-.11,2.8.04,1.2.13,1.62.11,2.36-.13.51-.17,1-.17,1.35,0,.32.14.47.29.82.74.74.97,1.63,1.39,3.26,1.53,1.09.1,1.94.24,2.08.33.18.11.32.37.28.57-.05.27-.31.61-.59.8-1.34.93-3.01,1.42-4.41,1.29-.54-.05-1.25-.2-1.58-.34-.32-.14-1.33-.73-1.75-1.03-1.1-.79-1.99-1.09-3.19-1.09-.84,0-1.17.08-3.63.78-1.63.47-1.61.47-2.55.13-.61-.22-1.21-.19-1.7.04-1.62.82-2.27,2.63-1.72,4.8.34,1.34,1.09,2.86,1.79,3.64.36.4.5.93.29,1.12-.29.26-.6.26-1.33-.03-.68-.24-2.13-.96-2.82-1.38-1.28-.77-1.49-.95-2.31-1.75-.42-.42-1.05-1.1-1.38-1.48-.34-.38-.73-.82-.88-.96-.55-.55-1.33-.96-2.07-1.11-.64-.14-2.02-.09-2.36.09-.29.17-.61.64-.61.93,0,.14.03.19.14.31.17.17,1,.79,1.4,1.07q.5.37.5.92c0,.45,0,.49-.1.6-.2.22-.28.22-2.29.19-2.03-.04-2.13-.03-2.4.19-.24.19-.31.34-.34.89-.04.43-.05.5-.17.59-.09.11-.15.11-.38.11-.27,0-.29,0-.46-.17-.15-.14-.17-.19-.17-.37,0-.38.14-.84.43-1.42.38-.77.49-1.03.66-1.72.26-1.02.61-1.61,1.44-2.44.68-.66,1.38-1.2,2.11-1.56.69-.34,1.25-.51,2.17-.63.32-.04.77-.11,1-.18.46-.11,1.26-.43,1.61-.63.27-.14,1.09-.59,1.98-1.03.96-.5,1.72-.7,2.66-.77.27.01,1.21.03,2.11.05ZM696.17,109.44c.17.45.18.51.13.66-.03.09-.13.26-.26.37-.18.18-.22.19-.42.19-.19,0-.32-.05-.73-.24-.6-.31-.78-.33-.98-.11-.18.19-.31.64-.31,1.05s.14,1.26.27,1.57c.18.41.55.92,1.26,1.7.83.91,1.09,1.21,1.29,1.65.28.57.42,1.19.33,1.49-.1.41-1.2.91-1.94.91-.97,0-1.81-.56-2.84-1.85-.61-.79-1.19-1.9-1.56-3-.36-1.09-.34-1.57.08-2.17.42-.64.54-1,.4-1.42-.04-.11-.22-.41-.42-.69-.4-.51-.5-.77-.5-1.17,0-.33.14-.65.57-1.32.42-.64.64-.91,1.16-1.46.47-.49,2.02-1.9,2.17-2.01.13-.08.42-.06.63.03.22.1.41.29.43.43.06.29.11,1.16.11,1.89.01,1.17.15,1.72.69,2.59.14.23.32.63.42.91ZM728.25,73.72c.15-.31.63-.77.97-.93.45-.22.68-.26,1.62-.26s1.28-.06,1.88-.29c.2-.08.46-.19.57-.27.66-.41.69-.43.91-.43.13,0,.29.04.37.08.2.11.29.2.41.45.18.41.15.93-.06,1.09-.13.08-.41.13-1.9.37-1.65.26-1.99.4-2.68,1.01-.13.11-.36.26-.51.33-.24.11-.34.14-.7.15-.52.01-.64-.05-.82-.41-.15-.34-.17-.61-.05-.88ZM725.64,82.62c.92-.17,1.38-.32,2.36-.78,1.02-.49,1.32-.57,2.76-.86,2.46-.49,3.95-1,5.17-1.79.47-.31.64-.32,1.35-.23.26.03.47.09.65.18.5.24.86.77.86,1.29,0,.2-.01.26-.14.4-.2.23-.36.29-.78.32-.29.03-.38.05-.47.13-.06.06-.11.14-.11.18,0,.13-.14.2-.73.41-.75.27-1.44.42-2.01.47-.26.03-.54.06-.63.1-.26.1-.64.4-1.05.78-.23.22-.49.41-.66.5-.27.14-.31.15-.79.15s-.54-.01-1.03-.19c-.69-.24-1.52-.5-1.66-.5-.05,0-.28.11-.47.26-1.02.68-2.13,1.05-3.27,1.1-.5.03-.52.03-.63-.08s-.2-.45-.2-.66c.03-.57.57-1.02,1.48-1.17ZM724.06,70.83c.1.1.24.7.2.88-.01.09-.11.2-.29.36-.15.13-.41.37-.59.54-.52.51-.78,1.19-.64,1.62.08.26.5.8.88,1.16.47.43.63.75.64,1.29.03.52-.08.75-.37.88-.18.08-.26.08-.65.06-.69-.05-1.15-.27-1.48-.72-.23-.32-.33-.63-.41-1.29-.06-.61-.14-.83-.32-1.03-.23-.23-.46-.24-1.02-.03-.29.1-.8.11-1.4.03-.28-.05-.77-.06-1.46-.06-1.35,0-1.38,0-1.57.69-.29.98-.97,1.86-1.85,2.4-.54.32-1.51.6-1.76.51-.26-.1-.45-.77-.32-1.15.08-.22.32-.49.57-.63.26-.13.54-.2,1.38-.4.38-.08.74-.18.8-.22.29-.2.23-.5-.15-.92-.31-.33-.36-.41-.36-.61s.26-.6.56-.92c.34-.34.86-.6,1.65-.8,1.06-.28,1.63-.52,2.15-.91.17-.13.38-.27.49-.31.23-.1.92-.15,1.53-.13.47.04,1.53,0,2.2-.09.22-.03.56-.1.77-.17.46-.15.72-.17.83-.05ZM767.05,85.25c-.27.54-1.05.55-1.67.03-.11-.1-.15-.17-.15-.28,0-.18.1-.4.24-.54.08-.08.13-.09.52-.06.23,0,.54.05.69.09.42.1.55.38.37.77ZM767.81,107.92c-.61-1.24-1.19-1.66-2.69-1.94-.54-.1-2.04-.11-2.63-.04-.92.13-1.99.41-2.76.7-1.01.4-2.3,1.14-3.35,1.94-.86.65-4.07,3.27-5.67,4.64-1.03.88-1.32,1.09-1.8,1.34-.97.49-2.06.64-3.07.41-.4-.09-.56-.23-.78-.66-.14-.31-.17-.36-.18-.79,0-.26.01-.83.06-1.28.11-1.42.08-1.84-.2-2.18-.26-.32-.7-.46-1.12-.34-.11.03-.41.14-.66.24-.46.2-.72.24-.95.17-.06-.04-.24-.15-.4-.27-.4-.32-.69-.4-1.4-.4s-.88.05-1,.29c-.04.09-.08.27-.08.41,0,.2.03.32.23.73.08.18.18.41.26.6.04.09.08.18.1.23.28.7.49,1.02,1.76,2.63.55.68,1.28,1.62,1.62,2.06.34.45.72.87.8.96.36.31.86.47,1.17.4.06-.01.31-.2.52-.42.22-.2.47-.43.56-.5.24-.17.51-.14.75.03.03.01.05.04.06.06.03.01.05.04.08.06.14.19.14.33-.04.87-.2.6-.27,1.01-.23,1.65.03.7.09.83.49,1.06.57.34,1.37.59,2.06.63.43.04,1.16-.01,2.09-.11.47-.05,1-.11,1.56-.2,1.37-.22,1.66-.19,2.72.31.89.41,1.15.46,1.9.32,1.53-.29,2.98-1.02,4.07-2.11.49-.46.5-.51.51-1.89.01-1.37-.01-1.28.55-1.51,1.47-.56,2.9-1.48,4.06-2.61.64-.61,1.03-1.11,1.26-1.56.23-.46.29-.74.33-1.3.04-.89-.14-1.67-.6-2.61ZM753.71,114.03c-1.7,1.29-1.8,1.37-2.12,1.37-.23,0-.75-.17-.88-.27-.03-.04-.05-.14-.05-.27v-.22l.68-.72c.92-.95,2.36-2.32,2.69-2.57.15-.1.54-.33.86-.5.54-.28.61-.31.79-.29.13.01.28.06.4.14.47.31.5,1.07.05,1.48-.09.08-.36.29-.59.46-.23.15-1.05.78-1.83,1.38ZM758.57,113.6c-.1.22-.65.75-1.55,1.49-.74.61-.8.65-.97.63-.18-.04-.42-.19-.5-.33-.03-.06-.06-.19-.06-.29,0-.17.04-.22.61-.83.33-.36.84-.88,1.11-1.16l.51-.51.32-.03c.45-.04.43-.04.52.17.14.29.13.61,0,.87ZM754.12,72.4c-.04-.22-.08-.32-.17-.41-.15-.17-.27-.15-.42,0-.14.14-.73,1.06-1.15,1.8-.31.55-.55,1.15-.68,1.65-.11.47-.11.49.23.65.27.14.47.18.64.11.19-.08.86-.77,1.09-1.15.51-.79.65-1.6.46-2.66ZM746.2,89.24c-.11-.01-.31.03-.42.06-.51.19-1.03.61-1.23,1.01-.09.18-.11.28-.1.49l.03.26h.15c.15.04.22-.03.83-.51.95-.75.93-.74.95-1.05v-.26s-.2,0-.2,0ZM743.37,68.1c-.34-.42-.78-.59-1.06-.41-.19.11-.38.43-.46.73-.05.2-.04.72.03.87.05.14.24.19.68.19.41,0,.45-.01.6-.11.23-.19.36-.43.36-.79,0-.28-.03-.33-.14-.47ZM733.01,92.79s-.18-.06-.32-.08c-.22-.01-.29,0-.61.17-.57.29-1.37.75-1.8,1.03-.57.34-.87.63-1.05,1-.32.63-.24,1,.23,1.07.14.03.24-.04,1.06-.59,1.86-1.25,2.07-1.43,2.44-2.04.14-.22.15-.47.05-.56ZM713.69,93.91c-.14-1.05-.79-2.21-1.78-3.21-.26-.27-.61-.57-.77-.66-.59-.38-1.37-.59-1.63-.43-.06.04-.17.18-.22.29l-.11.23.09.09c.06.06.31.22.54.34.61.36,1.17.78,1.65,1.29.51.52.75.87,1.11,1.55.38.7.55.95.79,1.12.37.29.45.17.33-.61ZM712.03,96.76c-.08-.32-.2-.41-.86-.61-1.47-.46-2.36-.84-3.04-1.3-1.21-.82-1.99-1.83-2.45-3.18-.26-.78-.34-1.4-.38-2.53-.01-.69-.04-.98-.08-1.07-.08-.13-.1-.14-.23-.05-.13.1-.26.37-.55,1.19-.33.92-.74,1.76-1.09,2.21-.5.66-.55.75-.69,1.11-.11.32-.13.38-.09.5.05.17,1.57,1.67,2.43,2.43,1.4,1.24,2.92,2.26,3.98,2.68.98.4,1.88.5,2.35.29.56-.24.84-.93.69-1.66ZM705,98.47c-.03-.36-.06-.47-.24-.66-.23-.24-1-.34-1.33-.17-.36.18-.57.74-.49,1.25.1.56.4.86.87.86.41,0,.66-.1.91-.33.24-.26.31-.47.28-.95Z"/>
    </g>
  </g>
</svg>